<svg width="254" height="92" viewBox="0 0 254 92" fill="none" xmlns="http://www.w3.org/2000/svg">
<path d="M36.592 7.26L59.434 66.104C60.3113 68.36 61.2827 69.9267 62.348 70.804C63.476 71.6187 64.4787 72.0573 65.356 72.12V74C63.476 73.8747 61.2513 73.812 58.682 73.812C56.1753 73.7493 53.6373 73.718 51.068 73.718C48.1853 73.718 45.4593 73.7493 42.89 73.812C40.3207 73.812 38.284 73.8747 36.78 74V72.12C39.976 71.9947 41.9813 71.462 42.796 70.522C43.6733 69.5193 43.4853 67.42 42.232 64.224L26.252 20.514L27.944 18.07L13.656 55.294C12.2773 58.7407 11.4313 61.5607 11.118 63.754C10.8673 65.9473 11.024 67.6393 11.588 68.83C12.2147 70.0207 13.186 70.8667 14.502 71.368C15.8807 71.8067 17.51 72.0573 19.39 72.12V74C17.322 73.8747 15.348 73.812 13.468 73.812C11.588 73.7493 9.67667 73.718 7.734 73.718C6.35533 73.718 5.03933 73.7493 3.786 73.812C2.59533 73.812 1.53 73.8747 0.59 74V72.12C1.906 71.8693 3.25333 71.0233 4.632 69.582C6.01067 68.1407 7.358 65.6967 8.674 62.25L30.106 7.26C31.1087 7.32266 32.174 7.354 33.302 7.354C34.4927 7.354 35.5893 7.32266 36.592 7.26ZM43.172 46.928V48.808H15.16L16.1 46.928H43.172ZM99.2893 24.086C101.295 24.086 102.924 24.5247 104.177 25.402C105.431 26.2167 106.339 27.282 106.903 28.598C107.53 29.914 107.843 31.2927 107.843 32.734C107.843 35.0527 107.154 36.964 105.775 38.468C104.459 39.9093 102.705 40.63 100.511 40.63C98.3179 40.63 96.5946 40.0973 95.3413 39.032C94.1506 37.904 93.5553 36.4313 93.5553 34.614C93.5553 32.8593 93.9313 31.418 94.6833 30.29C95.4979 29.0993 96.5006 28.0967 97.6913 27.282C96.8139 27.0313 95.9366 27.0627 95.0593 27.376C93.8686 27.564 92.7406 28.0653 91.6753 28.88C90.6099 29.632 89.7013 30.6033 88.9493 31.794C88.1973 32.922 87.6019 34.1753 87.1633 35.554C86.7246 36.87 86.5053 38.1547 86.5053 39.408V64.318C86.5053 67.326 87.2259 69.3627 88.6673 70.428C90.1713 71.4933 92.3959 72.026 95.3413 72.026V74C93.8999 73.9373 91.8006 73.8747 89.0433 73.812C86.2859 73.6867 83.4033 73.624 80.3953 73.624C77.8886 73.624 75.3506 73.6867 72.7813 73.812C70.2119 73.8747 68.2693 73.9373 66.9533 74V72.026C69.1466 72.026 70.6819 71.556 71.5593 70.616C72.4993 69.676 72.9693 67.89 72.9693 65.258V35.648C72.9693 32.828 72.5306 30.76 71.6533 29.444C70.8386 28.0653 69.2719 27.376 66.9533 27.376V25.402C68.9586 25.59 70.9013 25.684 72.7813 25.684C75.4133 25.684 77.8573 25.59 80.1133 25.402C82.4319 25.1513 84.5626 24.8067 86.5053 24.368V33.11C87.2573 31.418 88.2599 29.8827 89.5133 28.504C90.7666 27.1253 92.2079 26.06 93.8373 25.308C95.4666 24.4933 97.2839 24.086 99.2893 24.086ZM127.527 0.397995V65.258C127.527 67.89 127.935 69.676 128.749 70.616C129.627 71.556 131.099 72.026 133.167 72.026V74C131.977 73.9373 130.222 73.8747 127.903 73.812C125.647 73.6867 123.329 73.624 120.947 73.624C118.503 73.624 116.028 73.6867 113.521 73.812C111.077 73.8747 109.229 73.9373 107.975 74V72.026C110.169 72.026 111.704 71.556 112.581 70.616C113.521 69.676 113.991 67.89 113.991 65.258V11.678C113.991 8.858 113.553 6.79 112.675 5.474C111.861 4.09533 110.294 3.406 107.975 3.406V1.432C109.981 1.62 111.923 1.71399 113.803 1.71399C116.373 1.71399 118.817 1.62 121.135 1.432C123.454 1.18133 125.585 0.836664 127.527 0.397995ZM158.171 25.402V27.282C156.229 27.658 154.286 28.4727 152.343 29.726C150.401 30.9793 148.427 32.5773 146.421 34.52L139.183 42.04L140.123 40.254L156.197 67.138C156.887 68.266 157.607 69.2687 158.359 70.146C159.111 71.0233 160.02 71.65 161.085 72.026V74C160.145 73.9373 158.735 73.8747 156.855 73.812C154.975 73.6867 153.095 73.624 151.215 73.624C148.897 73.624 146.578 73.6867 144.259 73.812C141.941 73.8747 140.217 73.9373 139.089 74V72.026C140.343 72.026 141.189 71.744 141.627 71.18C142.066 70.5533 142.003 69.77 141.439 68.83L132.133 52.004C131.381 50.8133 130.629 50.0613 129.877 49.748C129.188 49.372 128.248 49.1527 127.057 49.09V47.304C128.373 47.1787 129.501 46.9593 130.441 46.646C131.444 46.3327 132.353 45.7373 133.167 44.86L140.311 37.904C142.442 35.8987 143.507 34.1127 143.507 32.546C143.507 30.9793 142.818 29.726 141.439 28.786C140.123 27.846 138.369 27.3447 136.175 27.282V25.402C137.93 25.4647 139.841 25.5273 141.909 25.59C143.977 25.6527 145.732 25.684 147.173 25.684C148.427 25.684 149.743 25.684 151.121 25.684C152.563 25.6213 153.91 25.59 155.163 25.59C156.417 25.5273 157.419 25.4647 158.171 25.402ZM176.037 74.658C173.217 74.658 170.867 74.1253 168.987 73.06C167.107 71.9947 165.728 70.5847 164.851 68.83C163.973 67.0127 163.535 65.0387 163.535 62.908C163.535 60.2133 164.13 58.02 165.321 56.328C166.574 54.636 168.172 53.2573 170.115 52.192C172.057 51.1267 174.094 50.2493 176.225 49.56C178.418 48.8707 180.486 48.2127 182.429 47.586C184.434 46.8967 186.032 46.1133 187.223 45.236C188.476 44.296 189.103 43.1053 189.103 41.664V34.332C189.103 32.7027 188.821 31.2613 188.257 30.008C187.755 28.692 186.941 27.6893 185.813 27C184.747 26.3107 183.337 25.966 181.583 25.966C180.329 25.966 179.076 26.154 177.823 26.53C176.569 26.8433 175.535 27.4073 174.721 28.222C176.475 28.8487 177.823 29.82 178.763 31.136C179.765 32.3893 180.267 33.8307 180.267 35.46C180.267 37.5907 179.515 39.2827 178.011 40.536C176.569 41.7893 174.846 42.416 172.841 42.416C170.585 42.416 168.861 41.7267 167.671 40.348C166.543 38.9067 165.979 37.1833 165.979 35.178C165.979 33.3607 166.417 31.8567 167.295 30.666C168.235 29.4753 169.519 28.3473 171.149 27.282C172.903 26.2793 175.003 25.496 177.447 24.932C179.953 24.368 182.648 24.086 185.531 24.086C188.413 24.086 191.014 24.3993 193.333 25.026C195.651 25.59 197.594 26.6553 199.161 28.222C200.602 29.6633 201.542 31.4493 201.981 33.58C202.419 35.648 202.639 38.28 202.639 41.476V67.044C202.639 68.6107 202.795 69.7073 203.109 70.334C203.422 70.898 203.955 71.18 204.707 71.18C205.271 71.18 205.803 71.0233 206.305 70.71C206.869 70.3967 207.464 70.0207 208.091 69.582L209.031 71.18C207.715 72.308 206.179 73.1853 204.425 73.812C202.733 74.376 200.821 74.658 198.691 74.658C196.372 74.658 194.523 74.3447 193.145 73.718C191.766 73.0287 190.763 72.12 190.137 70.992C189.573 69.864 189.291 68.548 189.291 67.044C187.787 69.4253 185.969 71.3053 183.839 72.684C181.708 74 179.107 74.658 176.037 74.658ZM182.711 68.642C183.964 68.642 185.092 68.36 186.095 67.796C187.16 67.1693 188.163 66.1667 189.103 64.788V45.518C188.539 46.458 187.755 47.304 186.753 48.056C185.75 48.808 184.685 49.5913 183.557 50.406C182.429 51.158 181.332 52.004 180.267 52.944C179.264 53.884 178.449 55.0433 177.823 56.422C177.196 57.8007 176.883 59.4613 176.883 61.404C176.883 63.848 177.415 65.6653 178.481 66.856C179.546 68.0467 180.956 68.642 182.711 68.642ZM236.157 24.086C238.601 24.086 240.826 24.368 242.831 24.932C244.899 25.4333 246.591 26.0913 247.907 26.906C249.536 27.9087 250.79 29.162 251.667 30.666C252.607 32.1073 253.077 33.7993 253.077 35.742C253.077 37.9353 252.388 39.7527 251.009 41.194C249.63 42.5727 247.844 43.262 245.651 43.262C243.458 43.262 241.703 42.6353 240.387 41.382C239.071 40.1287 238.413 38.4367 238.413 36.306C238.413 34.3007 239.04 32.64 240.293 31.324C241.546 29.9453 242.988 29.0367 244.617 28.598C244.116 27.9713 243.364 27.4387 242.361 27C241.358 26.5613 240.23 26.342 238.977 26.342C237.034 26.342 235.311 26.906 233.807 28.034C232.366 29.162 231.144 30.7287 230.141 32.734C229.138 34.7393 228.355 37.0893 227.791 39.784C227.29 42.4787 227.039 45.424 227.039 48.62C227.039 53.4453 227.634 57.2367 228.825 59.994C230.078 62.7513 231.645 64.694 233.525 65.822C235.468 66.95 237.473 67.514 239.541 67.514C240.732 67.514 242.016 67.326 243.395 66.95C244.836 66.574 246.278 65.822 247.719 64.694C249.223 63.566 250.602 61.968 251.855 59.9L253.453 60.464C252.764 62.7827 251.636 65.1013 250.069 67.42C248.502 69.7387 246.466 71.65 243.959 73.154C241.452 74.5953 238.382 75.316 234.747 75.316C230.674 75.316 226.976 74.4387 223.655 72.684C220.396 70.8667 217.764 68.1093 215.759 64.412C213.816 60.652 212.845 55.8267 212.845 49.936C212.845 44.296 213.848 39.5647 215.853 35.742C217.921 31.8567 220.71 28.9427 224.219 27C227.728 25.0573 231.708 24.086 236.157 24.086ZM234.089 73.812L232.115 80.11C233.118 79.734 234.183 79.452 235.311 79.264C236.439 79.076 237.598 78.982 238.789 78.982C240.92 78.982 242.518 79.4207 243.583 80.298C244.711 81.238 245.275 82.4913 245.275 84.058C245.275 85.8127 244.648 87.254 243.395 88.382C242.204 89.51 240.606 90.3247 238.601 90.826C236.596 91.39 234.434 91.672 232.115 91.672C230.423 91.672 228.888 91.5467 227.509 91.296C226.13 91.108 224.94 90.8573 223.937 90.544L224.407 88.852C224.783 88.9147 225.347 88.9773 226.099 89.04C226.851 89.1653 227.666 89.228 228.543 89.228C229.608 89.228 230.642 89.1027 231.645 88.852C232.71 88.6013 233.588 88.194 234.277 87.63C235.029 87.066 235.405 86.314 235.405 85.374C235.405 83.7447 234.371 82.93 232.303 82.93C231.802 82.93 231.175 82.9613 230.423 83.024C229.734 83.1493 229.107 83.3373 228.543 83.588L231.551 73.812H234.089Z" fill="white"/>
<path d="M36.592 7.26L59.434 66.104C60.3113 68.36 61.2827 69.9267 62.348 70.804C63.476 71.6187 64.4787 72.0573 65.356 72.12V74C63.476 73.8747 61.2513 73.812 58.682 73.812C56.1753 73.7493 53.6373 73.718 51.068 73.718C48.1853 73.718 45.4593 73.7493 42.89 73.812C40.3207 73.812 38.284 73.8747 36.78 74V72.12C39.976 71.9947 41.9813 71.462 42.796 70.522C43.6733 69.5193 43.4853 67.42 42.232 64.224L26.252 20.514L27.944 18.07L13.656 55.294C12.2773 58.7407 11.4313 61.5607 11.118 63.754C10.8673 65.9473 11.024 67.6393 11.588 68.83C12.2147 70.0207 13.186 70.8667 14.502 71.368C15.8807 71.8067 17.51 72.0573 19.39 72.12V74C17.322 73.8747 15.348 73.812 13.468 73.812C11.588 73.7493 9.67667 73.718 7.734 73.718C6.35533 73.718 5.03933 73.7493 3.786 73.812C2.59533 73.812 1.53 73.8747 0.59 74V72.12C1.906 71.8693 3.25333 71.0233 4.632 69.582C6.01067 68.1407 7.358 65.6967 8.674 62.25L30.106 7.26C31.1087 7.32266 32.174 7.354 33.302 7.354C34.4927 7.354 35.5893 7.32266 36.592 7.26ZM43.172 46.928V48.808H15.16L16.1 46.928H43.172ZM99.2893 24.086C101.295 24.086 102.924 24.5247 104.177 25.402C105.431 26.2167 106.339 27.282 106.903 28.598C107.53 29.914 107.843 31.2927 107.843 32.734C107.843 35.0527 107.154 36.964 105.775 38.468C104.459 39.9093 102.705 40.63 100.511 40.63C98.3179 40.63 96.5946 40.0973 95.3413 39.032C94.1506 37.904 93.5553 36.4313 93.5553 34.614C93.5553 32.8593 93.9313 31.418 94.6833 30.29C95.4979 29.0993 96.5006 28.0967 97.6913 27.282C96.8139 27.0313 95.9366 27.0627 95.0593 27.376C93.8686 27.564 92.7406 28.0653 91.6753 28.88C90.6099 29.632 89.7013 30.6033 88.9493 31.794C88.1973 32.922 87.6019 34.1753 87.1633 35.554C86.7246 36.87 86.5053 38.1547 86.5053 39.408V64.318C86.5053 67.326 87.2259 69.3627 88.6673 70.428C90.1713 71.4933 92.3959 72.026 95.3413 72.026V74C93.8999 73.9373 91.8006 73.8747 89.0433 73.812C86.2859 73.6867 83.4033 73.624 80.3953 73.624C77.8886 73.624 75.3506 73.6867 72.7813 73.812C70.2119 73.8747 68.2693 73.9373 66.9533 74V72.026C69.1466 72.026 70.6819 71.556 71.5593 70.616C72.4993 69.676 72.9693 67.89 72.9693 65.258V35.648C72.9693 32.828 72.5306 30.76 71.6533 29.444C70.8386 28.0653 69.2719 27.376 66.9533 27.376V25.402C68.9586 25.59 70.9013 25.684 72.7813 25.684C75.4133 25.684 77.8573 25.59 80.1133 25.402C82.4319 25.1513 84.5626 24.8067 86.5053 24.368V33.11C87.2573 31.418 88.2599 29.8827 89.5133 28.504C90.7666 27.1253 92.2079 26.06 93.8373 25.308C95.4666 24.4933 97.2839 24.086 99.2893 24.086ZM127.527 0.397995V65.258C127.527 67.89 127.935 69.676 128.749 70.616C129.627 71.556 131.099 72.026 133.167 72.026V74C131.977 73.9373 130.222 73.8747 127.903 73.812C125.647 73.6867 123.329 73.624 120.947 73.624C118.503 73.624 116.028 73.6867 113.521 73.812C111.077 73.8747 109.229 73.9373 107.975 74V72.026C110.169 72.026 111.704 71.556 112.581 70.616C113.521 69.676 113.991 67.89 113.991 65.258V11.678C113.991 8.858 113.553 6.79 112.675 5.474C111.861 4.09533 110.294 3.406 107.975 3.406V1.432C109.981 1.62 111.923 1.71399 113.803 1.71399C116.373 1.71399 118.817 1.62 121.135 1.432C123.454 1.18133 125.585 0.836664 127.527 0.397995ZM158.171 25.402V27.282C156.229 27.658 154.286 28.4727 152.343 29.726C150.401 30.9793 148.427 32.5773 146.421 34.52L139.183 42.04L140.123 40.254L156.197 67.138C156.887 68.266 157.607 69.2687 158.359 70.146C159.111 71.0233 160.02 71.65 161.085 72.026V74C160.145 73.9373 158.735 73.8747 156.855 73.812C154.975 73.6867 153.095 73.624 151.215 73.624C148.897 73.624 146.578 73.6867 144.259 73.812C141.941 73.8747 140.217 73.9373 139.089 74V72.026C140.343 72.026 141.189 71.744 141.627 71.18C142.066 70.5533 142.003 69.77 141.439 68.83L132.133 52.004C131.381 50.8133 130.629 50.0613 129.877 49.748C129.188 49.372 128.248 49.1527 127.057 49.09V47.304C128.373 47.1787 129.501 46.9593 130.441 46.646C131.444 46.3327 132.353 45.7373 133.167 44.86L140.311 37.904C142.442 35.8987 143.507 34.1127 143.507 32.546C143.507 30.9793 142.818 29.726 141.439 28.786C140.123 27.846 138.369 27.3447 136.175 27.282V25.402C137.93 25.4647 139.841 25.5273 141.909 25.59C143.977 25.6527 145.732 25.684 147.173 25.684C148.427 25.684 149.743 25.684 151.121 25.684C152.563 25.6213 153.91 25.59 155.163 25.59C156.417 25.5273 157.419 25.4647 158.171 25.402ZM176.037 74.658C173.217 74.658 170.867 74.1253 168.987 73.06C167.107 71.9947 165.728 70.5847 164.851 68.83C163.973 67.0127 163.535 65.0387 163.535 62.908C163.535 60.2133 164.13 58.02 165.321 56.328C166.574 54.636 168.172 53.2573 170.115 52.192C172.057 51.1267 174.094 50.2493 176.225 49.56C178.418 48.8707 180.486 48.2127 182.429 47.586C184.434 46.8967 186.032 46.1133 187.223 45.236C188.476 44.296 189.103 43.1053 189.103 41.664V34.332C189.103 32.7027 188.821 31.2613 188.257 30.008C187.755 28.692 186.941 27.6893 185.813 27C184.747 26.3107 183.337 25.966 181.583 25.966C180.329 25.966 179.076 26.154 177.823 26.53C176.569 26.8433 175.535 27.4073 174.721 28.222C176.475 28.8487 177.823 29.82 178.763 31.136C179.765 32.3893 180.267 33.8307 180.267 35.46C180.267 37.5907 179.515 39.2827 178.011 40.536C176.569 41.7893 174.846 42.416 172.841 42.416C170.585 42.416 168.861 41.7267 167.671 40.348C166.543 38.9067 165.979 37.1833 165.979 35.178C165.979 33.3607 166.417 31.8567 167.295 30.666C168.235 29.4753 169.519 28.3473 171.149 27.282C172.903 26.2793 175.003 25.496 177.447 24.932C179.953 24.368 182.648 24.086 185.531 24.086C188.413 24.086 191.014 24.3993 193.333 25.026C195.651 25.59 197.594 26.6553 199.161 28.222C200.602 29.6633 201.542 31.4493 201.981 33.58C202.419 35.648 202.639 38.28 202.639 41.476V67.044C202.639 68.6107 202.795 69.7073 203.109 70.334C203.422 70.898 203.955 71.18 204.707 71.18C205.271 71.18 205.803 71.0233 206.305 70.71C206.869 70.3967 207.464 70.0207 208.091 69.582L209.031 71.18C207.715 72.308 206.179 73.1853 204.425 73.812C202.733 74.376 200.821 74.658 198.691 74.658C196.372 74.658 194.523 74.3447 193.145 73.718C191.766 73.0287 190.763 72.12 190.137 70.992C189.573 69.864 189.291 68.548 189.291 67.044C187.787 69.4253 185.969 71.3053 183.839 72.684C181.708 74 179.107 74.658 176.037 74.658ZM182.711 68.642C183.964 68.642 185.092 68.36 186.095 67.796C187.16 67.1693 188.163 66.1667 189.103 64.788V45.518C188.539 46.458 187.755 47.304 186.753 48.056C185.75 48.808 184.685 49.5913 183.557 50.406C182.429 51.158 181.332 52.004 180.267 52.944C179.264 53.884 178.449 55.0433 177.823 56.422C177.196 57.8007 176.883 59.4613 176.883 61.404C176.883 63.848 177.415 65.6653 178.481 66.856C179.546 68.0467 180.956 68.642 182.711 68.642ZM236.157 24.086C238.601 24.086 240.826 24.368 242.831 24.932C244.899 25.4333 246.591 26.0913 247.907 26.906C249.536 27.9087 250.79 29.162 251.667 30.666C252.607 32.1073 253.077 33.7993 253.077 35.742C253.077 37.9353 252.388 39.7527 251.009 41.194C249.63 42.5727 247.844 43.262 245.651 43.262C243.458 43.262 241.703 42.6353 240.387 41.382C239.071 40.1287 238.413 38.4367 238.413 36.306C238.413 34.3007 239.04 32.64 240.293 31.324C241.546 29.9453 242.988 29.0367 244.617 28.598C244.116 27.9713 243.364 27.4387 242.361 27C241.358 26.5613 240.23 26.342 238.977 26.342C237.034 26.342 235.311 26.906 233.807 28.034C232.366 29.162 231.144 30.7287 230.141 32.734C229.138 34.7393 228.355 37.0893 227.791 39.784C227.29 42.4787 227.039 45.424 227.039 48.62C227.039 53.4453 227.634 57.2367 228.825 59.994C230.078 62.7513 231.645 64.694 233.525 65.822C235.468 66.95 237.473 67.514 239.541 67.514C240.732 67.514 242.016 67.326 243.395 66.95C244.836 66.574 246.278 65.822 247.719 64.694C249.223 63.566 250.602 61.968 251.855 59.9L253.453 60.464C252.764 62.7827 251.636 65.1013 250.069 67.42C248.502 69.7387 246.466 71.65 243.959 73.154C241.452 74.5953 238.382 75.316 234.747 75.316C230.674 75.316 226.976 74.4387 223.655 72.684C220.396 70.8667 217.764 68.1093 215.759 64.412C213.816 60.652 212.845 55.8267 212.845 49.936C212.845 44.296 213.848 39.5647 215.853 35.742C217.921 31.8567 220.71 28.9427 224.219 27C227.728 25.0573 231.708 24.086 236.157 24.086ZM234.089 73.812L232.115 80.11C233.118 79.734 234.183 79.452 235.311 79.264C236.439 79.076 237.598 78.982 238.789 78.982C240.92 78.982 242.518 79.4207 243.583 80.298C244.711 81.238 245.275 82.4913 245.275 84.058C245.275 85.8127 244.648 87.254 243.395 88.382C242.204 89.51 240.606 90.3247 238.601 90.826C236.596 91.39 234.434 91.672 232.115 91.672C230.423 91.672 228.888 91.5467 227.509 91.296C226.13 91.108 224.94 90.8573 223.937 90.544L224.407 88.852C224.783 88.9147 225.347 88.9773 226.099 89.04C226.851 89.1653 227.666 89.228 228.543 89.228C229.608 89.228 230.642 89.1027 231.645 88.852C232.71 88.6013 233.588 88.194 234.277 87.63C235.029 87.066 235.405 86.314 235.405 85.374C235.405 83.7447 234.371 82.93 232.303 82.93C231.802 82.93 231.175 82.9613 230.423 83.024C229.734 83.1493 229.107 83.3373 228.543 83.588L231.551 73.812H234.089Z" fill="url(#paint0_linear_399_2862)"/>
<defs>
<linearGradient id="paint0_linear_399_2862" x1="2" y1="35" x2="257" y2="35" gradientUnits="userSpaceOnUse">
<stop stop-color="#00EEFD"/>
<stop offset="1" stop-color="#1A61CC"/>
</linearGradient>
</defs>
</svg>
