<svg width="15" height="10" viewBox="0 0 15 10" fill="none" xmlns="http://www.w3.org/2000/svg">
<path d="M5.5125 7.78486C3.9125 7.55979 2.59375 7.0964 1.55625 6.39471C0.51875 5.69301 0 4.8854 0 3.97187C0 2.87298 0.722 1.93642 2.166 1.16217C3.61 0.38792 5.388 0.000530124 7.5 5.42234e-07C9.612 -0.00052904 11.3903 0.386861 12.8347 1.16217C14.2792 1.93748 15.001 2.87404 15 3.97187C15 4.71328 14.6595 5.38532 13.9785 5.98799C13.2975 6.59065 12.3942 7.06383 11.2687 7.40753C11.0687 7.47373 10.8907 7.44407 10.7347 7.31856C10.5787 7.19305 10.5005 7.02385 10.5 6.81096C10.5 6.57265 10.5657 6.36081 10.6972 6.17546C10.8287 5.99011 11.0005 5.85771 11.2125 5.77827C11.9625 5.51348 12.5312 5.21241 12.9187 4.87507C13.3062 4.53773 13.5 4.23666 13.5 3.97187C13.5 3.5482 12.9655 3.0451 11.8965 2.46256C10.8275 1.88002 9.362 1.58875 7.5 1.58875C5.638 1.58875 4.17225 1.88002 3.10275 2.46256C2.03325 3.0451 1.499 3.5482 1.5 3.97187C1.5 4.28962 1.81875 4.67039 2.45625 5.11418C3.09375 5.55797 4 5.89213 5.175 6.11668L4.725 5.64005C4.5875 5.49442 4.51875 5.30906 4.51875 5.08399C4.51875 4.85892 4.5875 4.67356 4.725 4.52793C4.8625 4.38229 5.0375 4.30948 5.25 4.30948C5.4625 4.30948 5.6375 4.38229 5.775 4.52793L7.725 6.5933C7.875 6.75217 7.95 6.93753 7.95 7.14936C7.95 7.36119 7.875 7.54655 7.725 7.70542L5.775 9.77079C5.6375 9.91643 5.46575 9.99269 5.25975 9.99957C5.05375 10.0065 4.8755 9.9302 4.725 9.77079C4.5875 9.62516 4.5155 9.44325 4.509 9.22506C4.5025 9.00687 4.56825 8.81807 4.70625 8.65867L5.5125 7.78486Z" fill="#27B7F2"/>
</svg>
