<svg width="140" height="140" viewBox="0 0 100 100" fill="none" xmlns="http://www.w3.org/2000/svg">
<rect width="100" height="100" fill="#27B7F2"/>
<path d="M52.552 28.56L68.104 68.624C68.7013 70.16 69.3627 71.2267 70.088 71.824C70.856 72.3787 71.5387 72.6773 72.136 72.72V74C70.856 73.9147 69.3413 73.872 67.592 73.872C65.8853 73.8293 64.1573 73.808 62.408 73.808C60.4453 73.808 58.5893 73.8293 56.84 73.872C55.0907 73.872 53.704 73.9147 52.68 74V72.72C54.856 72.6347 56.2213 72.272 56.776 71.632C57.3733 70.9493 57.2453 69.52 56.392 67.344L45.512 37.584L46.664 35.92L36.936 61.264C35.9973 63.6107 35.4213 65.5307 35.208 67.024C35.0373 68.5173 35.144 69.6693 35.528 70.48C35.9547 71.2907 36.616 71.8667 37.512 72.208C38.4507 72.5067 39.56 72.6773 40.84 72.72V74C39.432 73.9147 38.088 73.872 36.808 73.872C35.528 73.8293 34.2267 73.808 32.904 73.808C31.9653 73.808 31.0693 73.8293 30.216 73.872C29.4053 73.872 28.68 73.9147 28.04 74V72.72C28.936 72.5493 29.8533 71.9733 30.792 70.992C31.7307 70.0107 32.648 68.3467 33.544 66L48.136 28.56C48.8187 28.6027 49.544 28.624 50.312 28.624C51.1227 28.624 51.8693 28.6027 52.552 28.56ZM57.032 55.568V56.848H37.96L38.6 55.568H57.032Z" fill="white"/>
<path d="M52.552 28.56L68.104 68.624C68.7013 70.16 69.3627 71.2267 70.088 71.824C70.856 72.3787 71.5387 72.6773 72.136 72.72V74C70.856 73.9147 69.3413 73.872 67.592 73.872C65.8853 73.8293 64.1573 73.808 62.408 73.808C60.4453 73.808 58.5893 73.8293 56.84 73.872C55.0907 73.872 53.704 73.9147 52.68 74V72.72C54.856 72.6347 56.2213 72.272 56.776 71.632C57.3733 70.9493 57.2453 69.52 56.392 67.344L45.512 37.584L46.664 35.92L36.936 61.264C35.9973 63.6107 35.4213 65.5307 35.208 67.024C35.0373 68.5173 35.144 69.6693 35.528 70.48C35.9547 71.2907 36.616 71.8667 37.512 72.208C38.4507 72.5067 39.56 72.6773 40.84 72.72V74C39.432 73.9147 38.088 73.872 36.808 73.872C35.528 73.8293 34.2267 73.808 32.904 73.808C31.9653 73.808 31.0693 73.8293 30.216 73.872C29.4053 73.872 28.68 73.9147 28.04 74V72.72C28.936 72.5493 29.8533 71.9733 30.792 70.992C31.7307 70.0107 32.648 68.3467 33.544 66L48.136 28.56C48.8187 28.6027 49.544 28.624 50.312 28.624C51.1227 28.624 51.8693 28.6027 52.552 28.56ZM57.032 55.568V56.848H37.96L38.6 55.568H57.032Z" fill="white"/>
</svg>
