<svg width="18" height="22" viewBox="0 0 18 22" fill="none" xmlns="http://www.w3.org/2000/svg">
<path d="M11.7225 3.55654C11.8878 3.35722 13.3097 1.37564 12.9096 1.36851L11.7488 1.34782C10.5826 1.32705 9.43719 1.45174 8.28047 1.60424C7.73422 1.67625 7.18617 1.74754 6.64344 1.84372C6.47702 1.87321 6.27027 1.89166 6.11446 1.9621C5.94614 2.03819 5.91632 2.35285 5.84638 2.51549C5.10288 4.24439 4.599 6.0804 3.75991 7.77827C3.3189 8.67065 2.85279 9.53328 2.32859 10.3793C2.24865 10.5083 1.67117 11.2959 2.01458 11.3153C3.73493 11.4121 5.46967 11.3299 7.18593 11.3604C7.26467 11.3619 7.08642 11.4826 7.03917 11.5456C6.88409 11.7525 6.73172 11.9559 6.58723 12.1714C6.11344 12.8778 5.61157 13.5685 5.10001 14.2497C4.52423 15.0165 4.12037 15.8593 3.66617 16.6994C3.25624 17.4576 2.89745 18.2898 2.43039 19.0118C2.25808 19.2781 2.1338 19.5775 1.99271 19.8621C1.89275 20.0638 1.6991 20.3463 1.67226 20.5737C1.65864 20.689 1.83383 20.4065 1.91921 20.3277C2.17605 20.0906 2.49521 19.9108 2.72683 19.6483C3.2229 19.086 3.88535 18.6544 4.45381 18.1662C5.19264 17.5317 5.88912 16.8545 6.62725 16.2201C8.11566 14.9409 9.63522 13.7115 11.0801 12.3792C11.8136 11.7029 12.6639 11.0748 13.2926 10.2955C13.7407 9.74009 14.2614 9.20844 14.7531 8.6888C15.067 8.35705 15.3878 8.03393 15.7198 7.7201C15.9659 7.48745 16.2869 7.32608 16.3902 6.98087C16.4175 6.88971 15.641 6.91014 15.5569 6.90864C14.0362 6.88155 12.465 6.96584 10.9556 6.77972C10.7093 6.74934 10.0337 6.80613 10.1905 6.3905C10.3529 5.96006 10.6057 5.51023 10.8418 5.11363C11.1428 4.60808 11.3428 4.01422 11.7225 3.55654Z" fill="white" stroke="white" stroke-width="2" stroke-linecap="round"/>
</svg>
